Coordinates
version=1
nRows=24
nColumns=38
inDegrees=no

Units are S.I. units (second, meters, Newtons, ...)
If the header above contains a line with 'inDegrees', this indicates whether rotational values are in degrees (yes) or radians (no).

endheader
time	pelvis_tilt	pelvis_list	pelvis_rotation	pelvis_tx	pelvis_ty	pelvis_tz	hip_flexion_r	hip_adduction_r	hip_rotation_r	knee_angle_r	ankle_angle_r	subtalar_angle_r	mtp_angle_r	hip_flexion_l	hip_adduction_l	hip_rotation_l	knee_angle_l	ankle_angle_l	subtalar_angle_l	mtp_angle_l	lumbar_extension	lumbar_bending	lumbar_rotation	arm_flex_r	arm_add_r	arm_rot_r	elbow_flex_r	pro_sup_r	wrist_flex_r	wrist_dev_r	arm_flex_l	arm_add_l	arm_rot_l	elbow_flex_l	pro_sup_l	wrist_flex_l	wrist_dev_l
3.54167	-0.174739	0.0189941	-0.0867114	1.00826	0.956024	-0.314894	0.811515	0.104233	-0.0668402	-0.490793	0.506219	0.1	-0.000124659	-0.220273	0.0101473	-0.181138	-1.30481	-0.131716	0.1	-0.0014551	0.0143454	0.0337838	-0.265048	-0.925906	-0.365097	-0.122099	1.37207	2.03238	-0.00103888	0.000440825	-0.420912	-0.297757	0.0638149	2.15419	2.20629	0.0018568	-0.00311435
3.55	-0.165207	0.0158269	-0.0999727	1.00739	0.952001	-0.314497	0.785592	0.114467	-0.0728833	-0.508003	0.4552	0.1	-0.000124659	-0.186702	-0.0049681	-0.204185	-1.42527	-0.116565	0.1	-0.0014551	-0.00337787	0.0385505	-0.239304	-0.900186	-0.363136	-0.108355	1.38153	2.02499	-0.00103888	0.000440825	-0.428537	-0.286643	0.058702	2.12072	2.20304	0.0018568	-0.00311435
3.55833	-0.158142	0.0114016	-0.112709	1.00612	0.947307	-0.31416	0.765088	0.125541	-0.0763735	-0.540274	0.403789	0.1	-0.000124659	-0.147227	-0.0232143	-0.225486	-1.54263	-0.0976811	0.1	-0.0014551	-0.0192809	0.0444764	-0.212358	-0.872125	-0.362741	-0.0920905	1.39293	2.01832	-0.00103888	0.000440825	-0.435922	-0.275575	0.0537125	2.0842	2.19964	0.0018568	-0.00311435
3.56667	-0.153684	0.00599002	-0.124641	1.00443	0.942141	-0.313897	0.749759	0.137026	-0.077176	-0.585678	0.359443	0.1	-0.000124659	-0.101246	-0.0441642	-0.243213	-1.65563	-0.0747782	0.1	-0.0014551	-0.0332674	0.0512263	-0.184411	-0.841209	-0.363627	-0.0735666	1.40567	2.01274	-0.00103888	0.000440825	-0.442807	-0.264878	0.0491077	2.04433	2.19631	0.0018568	-0.00311435
3.575	-0.151663	-0.000190987	-0.135649	1.00232	0.936827	-0.313702	0.738499	0.148518	-0.0756045	-0.641149	0.329058	0.1	-0.000124659	-0.0484454	-0.067327	-0.256135	-1.76289	-0.0480002	0.1	-0.0014551	-0.0454231	0.0585121	-0.155647	-0.806969	-0.365431	-0.0532002	1.41917	2.00867	-0.00103888	0.000440825	-0.449181	-0.254814	0.0450464	2.00105	2.19303	0.0018568	-0.00311435
3.58333	-0.151703	-0.00692337	-0.14569	0.999836	0.931717	-0.313554	0.729369	0.15959	-0.0721404	-0.70243	0.317236	0.1	-0.000124659	0.0111195	-0.0920837	-0.263568	-1.86284	-0.0177837	0.1	-0.0014551	-0.0559437	0.0660106	-0.126319	-0.76913	-0.367733	-0.0315707	1.43295	2.00646	-0.00103888	0.000440825	-0.45533	-0.245615	0.0416034	1.95461	2.18945	0.0018568	-0.00311435
3.59167	-0.153264	-0.0139201	-0.154707	0.997055	0.927057	-0.313431	0.719858	0.169723	-0.0672962	-0.764452	0.325319	0.1	-0.000124659	0.0769829	-0.11762	-0.265263	-1.95373	0.0152218	0.1	-0.0014551	-0.0650446	0.0733055	-0.0968106	-0.727741	-0.37006	-0.00941459	1.44681	2.00624	-0.00103888	0.000440825	-0.461813	-0.237525	0.0388087	1.90573	2.18499	0.0018568	-0.00311435
3.6	-0.155728	-0.0207905	-0.162555	0.994078	0.922981	-0.313323	0.7073	0.178285	-0.0615256	-0.822015	0.35143	0.1	-0.000124659	0.14827	-0.14289	-0.261319	-2.03371	0.0501577	0.1	-0.0014551	-0.0729105	0.0798648	-0.0676506	-0.683258	-0.371896	0.0124003	1.46087	2.00781	-0.00103888	0.000440825	-0.46938	-0.230832	0.036678	1.85566	2.17904	0.0018568	-0.00311435
3.60833	-0.158475	-0.0270449	-0.168978	0.991046	0.91959	-0.313237	0.689355	0.184599	-0.0551108	-0.870559	0.39137	0.1	-0.000124659	0.223755	-0.166664	-0.252144	-2.10102	0.0860102	0.1	-0.0014551	-0.0796455	0.0850691	-0.039469	-0.636561	-0.372713	0.0329318	1.47561	2.01059	-0.00103888	0.000440825	-0.478845	-0.225863	0.0352134	1.80609	2.17112	0.0018568	-0.00311435
3.61667	-0.160978	-0.0321379	-0.173652	0.988145	0.917014	-0.313179	0.664407	0.188036	-0.048132	-0.906775	0.439945	0.1	-0.000124659	0.30198	-0.187635	-0.23847	-2.15415	0.121703	0.1	-0.0014551	-0.0852375	0.0882717	-0.01292	-0.588881	-0.372017	0.0512553	1.49179	2.0137	-0.00103888	0.000440825	-0.490968	-0.222955	0.0343721	1.75906	2.16119	0.0018568	-0.00311435
3.625	-0.162905	-0.035515	-0.176239	0.985571	0.915383	-0.313146	0.631748	0.188107	-0.0405182	-0.928874	0.492058	0.1	-0.000124659	0.381382	-0.204522	-0.221323	-2.19197	0.156137	0.1	-0.0014551	-0.0895444	0.088871	0.0114008	-0.54166	-0.369426	0.0665825	1.51028	2.0161	-0.00103888	0.000440825	-0.506352	-0.222378	0.0340222	1.71668	2.14977	0.0018568	-0.00311435
3.63333	-0.16415	-0.0366774	-0.176448	0.983494	0.914786	-0.313124	0.591558	0.184475	-0.032234	-0.936508	0.54332	0.1	-0.000124659	0.460426	-0.216185	-0.201988	-2.21386	0.188314	0.1	-0.0014551	-0.0922927	0.0863678	0.0330056	-0.496376	-0.36474	0.078382	1.53193	2.01683	-0.00103888	0.000440825	-0.525388	-0.224263	0.0339103	1.68086	2.13789	0.0018568	-0.00311435
3.64167	-0.164852	-0.0351774	-0.174048	0.982041	0.915238	-0.313116	0.544659	0.176928	-0.023561	-0.930455	0.590192	0.1	-0.000124659	0.537672	-0.221705	-0.181924	-2.2197	0.217493	0.1	-0.0014551	-0.09315	0.0804167	0.0515253	-0.454361	-0.357993	0.0864702	1.5573	2.01526	-0.00103888	0.000440825	-0.548238	-0.228548	0.0336659	1.65308	2.12694	0.0018568	-0.00311435
3.65	-0.165294	-0.0306645	-0.168861	0.981292	0.916686	-0.313149	0.492204	0.165351	-0.0152584	-0.912177	0.629735	0.1	-0.000124659	0.611806	-0.220405	-0.162608	-2.20982	0.24323	0.1	-0.0014551	-0.0918047	0.0708215	0.0666729	-0.416665	-0.349462	0.0910523	1.5866	2.0112	-0.00103888	0.000440825	-0.574846	-0.234955	0.0328413	1.63419	2.11834	0.0018568	-0.00311435
3.65833	-0.165797	-0.0229011	-0.160728	0.981296	0.919051	-0.313272	0.435346	0.149711	-0.00862456	-0.883407	0.659272	0.1	-0.000124659	0.681622	-0.211831	-0.145334	-2.18488	0.265328	0.1	-0.0014551	-0.0880657	0.0575175	0.078196	-0.383972	-0.339629	0.0926987	1.61963	2.00497	-0.00103888	0.000440825	-0.604981	-0.243025	0.030978	1.62434	2.11322	0.0018568	-0.00311435
3.66667	-0.166614	-0.0117833	-0.149487	0.982065	0.922243	-0.313537	0.375026	0.130059	-0.00550854	-0.845846	0.676242	0.1	-0.000124659	0.746018	-0.195762	-0.131052	-2.1458	0.283838	0.1	-0.0014551	-0.0819312	0.0405549	0.085849	-0.356605	-0.329113	0.0922639	1.65578	1.99724	-0.00103888	0.000440825	-0.638285	-0.252189	0.0276804	1.62303	2.11213	0.0018568	-0.00311435
3.675	-0.167882	0.00263825	-0.134983	0.983592	0.926158	-0.314003	0.311884	0.106568	-0.00811931	-0.801007	0.67826	0.1	-0.000124659	0.80401	-0.172228	-0.120239	-2.09359	0.299027	0.1	-0.0014551	-0.073604	0.0200969	0.0894164	-0.334581	-0.318582	0.0907625	1.69419	1.98889	-0.00103888	0.000440825	-0.674311	-0.261853	0.0226812	1.62928	2.11491	0.0018568	-0.00311435
3.68333	-0.169608	0.0201332	-0.117129	0.985856	0.930687	-0.31473	0.246328	0.0796212	-0.01865	-0.750192	0.663403	0.1	-0.000124659	0.854786	-0.141558	-0.112843	-2.02931	0.311341	0.1	-0.0014551	-0.0634559	-0.0035609	0.0887992	-0.317703	-0.308681	0.0892261	1.73382	1.98076	-0.00103888	0.000440825	-0.712549	-0.271499	0.0158825	1.64176	2.1207	0.0018568	-0.00311435
3.69167	-0.171709	0.0402621	-0.0960283	0.988819	0.935703	-0.315775	0.178698	0.0498947	-0.0387728	-0.694604	0.630639	0.1	-0.000124659	0.897766	-0.104465	-0.108342	-1.954	0.321348	0.1	-0.0014551	-0.05197	-0.0299533	0.0841531	-0.305641	-0.299972	0.0885649	1.7737	1.97349	-0.00103888	0.000440825	-0.752421	-0.28075	0.00737217	1.65904	2.12821	0.0018568	-0.00311435
3.7	-0.174058	0.0623519	-0.0721034	0.992406	0.941071	-0.317172	0.109481	0.0183969	-0.0691339	-0.635557	0.580229	0.1	-0.000124659	0.932656	-0.062147	-0.105908	-1.8687	0.329731	0.1	-0.0014551	-0.0396845	-0.0584017	0.076027	-0.297981	-0.292918	0.0894593	1.81293	1.96739	-0.00103888	0.000440825	-0.793255	-0.289409	-0.00259131	1.67972	2.13604	0.0018568	-0.00311435
3.70833	-0.176532	0.0855078	-0.0461765	0.996495	0.946643	-0.318913	0.0394979	-0.0135343	-0.108903	-0.574713	0.513997	0.1	-0.000124659	0.95948	-0.0163393	-0.104623	-1.77445	0.337255	0.1	-0.0014551	-0.0271349	-0.0879774	0.0654272	-0.294256	-0.287863	0.092297	1.85083	1.96239	-0.00103888	0.000440825	-0.834256	-0.29746	-0.0136177	1.70255	2.14305	0.0018568	-0.00311435
3.71667	-0.179023	0.108614	-0.0194367	1.00093	0.952255	-0.320939	-0.0299913	-0.0443218	-0.155544	-0.514238	0.435384	0.1	-0.000124659	0.978588	0.0307447	-0.103687	-1.67233	0.344729	0.1	-0.0014551	-0.0147752	-0.117518	0.0537533	-0.293959	-0.285029	0.0971625	1.88685	1.95813	-0.00103888	0.000440825	-0.874518	-0.305035	-0.0252402	1.72654	2.1486	0.0018568	-0.00311435
3.725	-0.181483	0.130412	0.006713	1.00552	0.957721	-0.323148	-0.0973415	-0.0723031	-0.204972	-0.456803	0.349172	0.1	-0.000124659	0.990627	0.0766051	-0.102576	-1.56356	0.352948	0.1	-0.0014551	-0.00291901	-0.145679	0.0426003	-0.296571	-0.284503	0.103876	1.92058	1.95411	-0.00103888	0.000440825	-0.913066	-0.312365	-0.0369795	1.75086	2.15272	0.0018568	-0.00311435
3.73333	-0.183933	0.149606	0.0308694	1.01005	0.962852	-0.3254	-0.160689	-0.0959299	-0.252145	-0.405422	0.26103	0.1	-0.000124659	0.996484	0.11871	-0.10117	-1.44952	0.362683	0.1	-0.0014551	0.00829617	-0.171039	0.0334988	-0.301589	-0.286224	0.112057	1.9516	1.94994	-0.00103888	0.000440825	-0.948933	-0.319711	-0.0483988	1.77491	2.15602	0.0018568	-0.00311435
